{"title":"Robin.Hood.2010.Theatrical.Cut.DVDRip.XviD-EXViD","uid":6625660,"size":1482489673,"categoryP":"video","categoryS":"movies","magnet":"?xt=urn:btih:2dbc3b534aeda42cd06aed06669e86e4d515e95f&amp;dn=Robin.Hood.2010.Theatrical.Cut.DVDRip.XviD-EXViD&amp;tr=udp%3A%2F%2Ftracker.openbittorrent.com%3A80&amp;tr=udp%3A%2F%2Fopen.demonii.com%3A1337&amp;tr=udp%3A%2F%2Ftracker.coppersurfer.tk%3A6969&amp;tr=udp%3A%2F%2Fexodus.desync.com%3A6969","seeders":0,"leechers":1,"uploader":"TvTeam","files":9,"time":1314164781,"description":". \n  &lt;a href=&quot;\nhttp://www.torrenting.com/&quot; rel=&quot;nofollow&quot; target=&quot;_NEW&quot;&gt;\nhttp://www.torrenting.com/&lt;/a&gt;        :     Greatest Movie Tracker on The Net!!!\n &lt;a href=&quot;\nhttp://www.Torrenting.com&quot; rel=&quot;nofollow&quot; target=&quot;_NEW&quot;&gt;\nhttp://www.Torrenting.com&lt;/a&gt;          :     Once &amp; For all ;)\n\n\n               www . Torrenting . Com \n\n(((((((((((((= Enjoy No RAR releases =))))))))))))))))))))\n\n\n...................................NFO:....................................\n\n.                                                                                                     \n       \n     \n     \n       \n       \n     \n     \n                                         \n                                         \n                EXVID                    \n                                         \n         \n                                         \n         Filled the Archives             \n                                         \n         \n                                         \n                With:                    \n                                         \n         \n                                         \n                                    \n     E240                           \n                                    \n     SP               (C) 2009      \n                                         \n     \n     \n     \n                                                                                  \n                                                                                   \n            Robin.Hood.2010.Theatrical.Cut.DVDRip.XviD-EXViD                        \n                                                                                   \n                                                                                  \n     \n                                                                                               \nEXViD aims to iNTERNAL those releases which have been lost in the archives.\nEXViD aims to PRE non-internal releases which have poor sources and are likely skipped by others.\n &lt;a href=&quot;\nhttp://www.imdb.com/title/tt0955308/&quot; rel=&quot;nofollow&quot; target=&quot;_NEW&quot;&gt;\nhttp://www.imdb.com/title/tt0955308/&lt;/a&gt;\nSubtitles: EN, ES, FR\nDate: 2011.08\n\nDirector: Ridley Scott\n\nGenres: Action | Adventure | Drama\n\nPlot:\nBirth of a legend. Following King Richard's death in France, archer Robin Longstride, along\nwith Will Scarlett, Alan-a-Dale and Little John, returns to England. They encounter the dying\nRobert of Locksley, whose party was ambushed by treacherous Godfrey, who hopes to facilitate a\nFrench invasion of England. Robin promises the dying knight he will return his sword to his\nfather Walter in Nottingham. Here Walter encourages him to impersonate the dead man to prevent\nhis land being confiscated by the crown, and he finds himself with Marian, a ready-made wife.\nHoping to stir baronial opposition to weak King John and allow an easy French take-over,\nGodfrey worms his way into the king's service as Earl Marshal of England and brutally invades\ntowns under the pretext of collecting Royal taxes. Can Robin navigate the politics of barons,\nroyals, traitors, and the French?\n\nCast:\nRussell Crowe \t ... \t Robin Longstride\nCate Blanchett \t ... \t Marion Loxley\nMax von Sydow \t ... \t Sir Walter Loxley\nWilliam Hurt \t ... \t William Marshal\nMark Strong \t ... \t Godfrey\nOscar Isaac \t ... \t Prince John\nDanny Huston \t ... \t King Richard The Lionheart\nEileen Atkins \t ... \t Eleanor of Aquitaine\nMark Addy \t ... \t Friar Tuck\nMatthew Macfadyen \t ... \t Sheriff of Nottingham\nKevin Durand \t ... \t Little John\nScott Grimes \t ... \t Will Scarlet\nAlan Doyle \t ... \t Allan A'Dayle\nDouglas Hodge \t ... \t Sir Robert Loxley\nLa Seydoux \t ... \t Isabella of Angoulme\n\nStats:\nFormat                           : AVI\nFormat/Info                      : Audio Video Interleave\nFile size                        : 1.37 GiB\nDuration                         : 2h 20mn\nOverall bit rate                 : 1 394 Kbps\nWriting application              : Nandub v1.0rc2\nWriting library                  : Nandub build 1852/release\n\nVideo\nID                               : 0\nFormat                           : MPEG-4 Visual\nFormat profile                   : Advanced Simple@L5\nFormat settings, BVOP            : 2\nFormat settings, QPel            : No\nFormat settings, GMC             : No warppoints\nFormat settings, Matrix          : Default (H.263)\nCodec ID                         : XVID\nCodec ID/Hint                    : XviD\nDuration                         : 2h 20mn\nBit rate                         : 939 Kbps\nWidth                            : 624 pixels\nHeight                           : 256 pixels\nDisplay aspect ratio             : 2.40:1\nFrame rate                       : 23.976 fps\nColor space                      : YUV\nChroma subsampling               : 4:2:0\nBit depth                        : 8 bits\nScan type                        : Progressive\nCompression mode                 : Lossy\nBits/(Pixel*Frame)               : 0.245\nStream size                      : 944 MiB (67%)\nWriting library                  : XviD 64\n\nAudio\nID                               : 1\nFormat                           : AC-3\nFormat/Info                      : Audio Coding 3\nMode extension                   : CM (complete main)\nCodec ID                         : 2000\nDuration                         : 2h 20mn\nBit rate mode                    : Constant\nBit rate                         : 448 Kbps\nChannel(s)                       : 6 channels\nChannel positions                : Front: L C R, Side: L R, LFE\nSampling rate                    : 48.0 KHz\nBit depth                        : 16 bits\nCompression mode                 : Lossy\nStream size                      : 450 MiB (32%)\nAlignment                        : Aligned on interleaves\nInterleave, duration             : 96 ms (2.30 video frames)\nInterleave, preload duration     : 96 ms\n\n\n\n\nRelease notes:\nARROW did the UNRATED DC, this is the THEATRiCAL cut.\n\nSee http://www.movie-censorship.com/report.php?ID=103527 for differences.\n\nenjoy!\n\nLooking for:\n75TB+ Archives\nDUTCH/FLEMiSH Archives\n                                                                                                    \nGreets: CRBS EPiSODE FiCO FLS iLS KLASSiGER LiPSYNC MADE NODLABS RUNNER SPRiNTER      \n   \n\n                                                                    ASCII DONE BY XX^NFO 2oo9","torrent":{"xt":"urn:btih:2dbc3b534aeda42cd06aed06669e86e4d515e95f","amp;dn":"Robin.Hood.2010.Theatrical.Cut.DVDRip.XviD-EXViD","amp;tr":["udp%3A%2F%2Ftracker.openbittorrent.com%3A80","udp%3A%2F%2Fopen.demonii.com%3A1337","udp%3A%2F%2Ftracker.coppersurfer.tk%3A6969","udp%3A%2F%2Fexodus.desync.com%3A6969"],"infoHash":"2dbc3b534aeda42cd06aed06669e86e4d515e95f","infoHashBuffer":{"type":"Buffer","data":[45,188,59,83,74,237,164,44,208,106,237,6,102,158,134,228,213,21,233,95]},"announce":[],"urlList":[]}}